<?xml version="1.0" standalone="no"?>
<!DOCTYPE svg PUBLIC "-//W3C//DTD SVG 20010904//EN"
 "http://www.w3.org/TR/2001/REC-SVG-20010904/DTD/svg10.dtd">
<svg version="1.0" xmlns="http://www.w3.org/2000/svg"
 width="180.000000pt" height="180.000000pt" viewBox="0 0 180.000000 180.000000"
 preserveAspectRatio="xMidYMid meet">
<metadata>
Created by potrace 1.14, written by Peter Selinger 2001-2017
</metadata>
<g transform="translate(0.000000,180.000000) scale(0.100000,-0.100000)"
fill="#000000" stroke="none">
<path d="M835 1092 c-16 -10 -36 -30 -43 -44 -8 -14 -29 -32 -48 -41 -22 -11
-36 -26 -40 -44 -4 -15 -16 -40 -27 -55 -26 -35 -15 -63 41 -102 30 -21 48
-27 67 -22 21 5 28 1 45 -26 10 -18 22 -45 25 -60 6 -27 9 -28 65 -28 l57 0 7
38 c8 51 40 92 72 92 32 0 64 17 64 34 0 8 7 19 15 26 8 7 15 29 15 50 0 21
-7 43 -15 50 -8 7 -15 21 -15 32 0 11 -14 33 -30 50 -26 25 -36 29 -68 25 -27
-3 -43 1 -59 15 -31 29 -91 33 -128 10z m120 -38 c20 -21 27 -24 44 -14 40 21
91 -6 94 -52 0 -13 9 -29 19 -36 22 -16 24 -65 3 -82 -8 -7 -15 -18 -15 -25 0
-29 -86 -34 -131 -8 -23 14 -33 15 -48 6 -20 -12 -61 -7 -61 8 0 16 -19 9 -24
-9 -4 -10 -22 -23 -40 -29 -30 -9 -39 -8 -70 15 -39 27 -47 60 -21 82 8 7 15
19 15 28 0 22 30 52 51 52 11 0 26 15 39 39 22 44 30 49 83 50 29 1 44 -5 62
-25z m-5 -259 c0 -28 12 -32 30 -10 21 25 21 11 0 -30 -11 -22 -20 -45 -20
-52 0 -8 -14 -13 -40 -13 -35 0 -42 4 -50 28 -6 15 -17 39 -25 54 -11 19 -12
29 -4 34 6 4 16 -1 21 -10 11 -20 38 -21 38 -2 0 14 14 24 38 25 6 1 12 -10
12 -24z m-60 5 c0 -5 -4 -10 -10 -10 -5 0 -10 5 -10 10 0 6 5 10 10 10 6 0 10
-4 10 -10z"/>
<path d="M830 1036 c-13 -26 -8 -56 10 -56 7 0 9 8 5 20 -5 14 -2 20 9 20 9 0
16 6 16 14 0 8 6 17 13 19 6 3 0 6 -14 6 -17 1 -30 -7 -39 -23z"/>
<path d="M923 1023 c-24 -9 -13 -22 25 -29 20 -4 31 -9 24 -11 -6 -3 -10 -9
-6 -14 8 -14 24 -1 24 20 0 10 -8 21 -17 25 -10 3 -22 8 -28 10 -5 2 -16 2
-22 -1z"/>
<path d="M1015 1020 c-3 -5 1 -10 11 -10 13 0 14 -3 5 -14 -9 -10 -8 -15 4
-19 9 -4 12 -13 8 -23 -4 -12 -2 -15 8 -12 13 5 15 43 4 76 -5 14 -31 16 -40
2z"/>
<path d="M860 949 c0 -22 6 -28 31 -33 34 -6 59 7 59 30 0 20 -17 17 -24 -3
-6 -15 -8 -15 -16 -3 -5 8 -12 11 -16 7 -4 -4 -13 1 -20 11 -12 15 -13 15 -14
-9z"/>
<path d="M734 935 c-8 -20 4 -35 26 -35 10 0 21 -4 25 -10 8 -13 35 -1 35 16
0 17 -17 18 -23 2 -3 -8 -6 -5 -6 5 -1 14 -6 17 -21 12 -15 -5 -18 -3 -14 9 3
9 1 16 -5 16 -7 0 -14 -7 -17 -15z"/>
<path d="M1061 904 c-10 -23 -14 -24 -28 -13 -13 11 -17 12 -21 1 -3 -10 -8
-8 -18 5 -14 17 -14 16 -12 -7 6 -51 108 -31 108 22 0 26 -15 22 -29 -8z"/>
<path d="M880 876 c0 -8 4 -17 9 -20 14 -9 41 4 41 20 0 17 -17 18 -23 2 -4
-10 -6 -10 -6 0 -1 17 -21 15 -21 -2z"/>
<path d="M746 851 c-5 -7 -4 -17 2 -23 13 -13 42 -3 42 13 0 6 -6 9 -14 6 -8
-3 -16 -1 -19 6 -2 8 -6 7 -11 -2z"/>
</g>
</svg>
